<!--?xml version="1.0" standalone="no"?-->
              <svg id="sw-js-blob-svg" viewBox="0 0 100 100" xmlns="http://www.w3.org/2000/svg" version="1.1">
                    <defs> 
                        <linearGradient id="sw-gradient" x1="0" x2="1" y1="1" y2="0">
                            <stop id="stop1" stop-color="rgba(248, 117, 55, 1)" offset="0%"></stop>
                            <stop id="stop2" stop-color="rgba(251, 168, 31, 1)" offset="100%"></stop>
                        </linearGradient>
                    </defs>
                <path fill="url(#sw-gradient)" d="M25.2,-33.8C29.6,-26.3,28,-15.5,27.6,-6.6C27.2,2.4,27.8,9.4,25.3,15.4C22.7,21.3,17,26.2,10,29.9C2.9,33.6,-5.6,36,-12.4,33.7C-19.2,31.4,-24.4,24.2,-29.1,16.6C-33.7,9,-37.7,0.8,-37.9,-8.2C-38.1,-17.2,-34.6,-27.1,-27.6,-34.2C-20.7,-41.3,-10.3,-45.6,0,-45.7C10.4,-45.7,20.7,-41.4,25.2,-33.8Z" width="100%" height="100%" transform="translate(50 50)" stroke-width="0" style="transition: all 0.3s ease 0s;"></path>
              </svg>